<?xml version="1.0" encoding="utf-8"?>
<!-- Generator: Adobe Illustrator 15.1.0, SVG Export Plug-In . SVG Version: 6.00 Build 0)  -->
<!DOCTYPE svg PUBLIC "-//W3C//DTD SVG 1.1//EN" "http://www.w3.org/Graphics/SVG/1.1/DTD/svg11.dtd">
<svg version="1.1" id="Layer_1" xmlns="http://www.w3.org/2000/svg" xmlns:xlink="http://www.w3.org/1999/xlink" x="0px" y="0px"
	 width="540px" height="110.879px" viewBox="0 0 540 110.879" enable-background="new 0 0 540 110.879" xml:space="preserve">
<g>
	<path fill="#FFFFFF" d="M149.243,54.142c0.708,0.047,1.36,0.047,2.014,0.047c3.917,0,7.346-1.85,7.346-5.503
		c0-3.51-2.938-5.408-6.856-5.408c-5.06,0-7.237,3.369-7.291,7.306h-4.625c0.272-6.404,4.189-10.863,11.916-10.863
		c6.693,0,11.753,2.799,11.753,9.014c0,2.941-2.394,5.503-5.333,6.688v0.096c4.68,0.901,6.965,4.127,6.965,8.159
		c0,6.736-6.04,10.246-13.277,10.246c-7.835,0-13.004-4.031-12.841-10.959h4.625c0.164,4.365,2.938,7.402,8.216,7.402
		c4.517,0,8.38-2.42,8.38-6.5c0-4.223-3.646-6.451-8.216-6.451c-0.925,0-1.905,0.047-2.775,0.142L149.243,54.142L149.243,54.142z"/>
	<path fill="#FFFFFF" d="M187.439,48.307c-0.435-3.036-2.83-5.029-6.475-5.029c-7.89,0-9.141,7.591-9.359,12.762l0.109,0.096
		c2.176-3.083,5.441-4.412,9.631-4.412c7.4,0,11.808,4.697,11.808,10.91c0,4.888-3.156,11.291-12.896,11.291
		c-11.427,0-13.276-9.107-13.276-16.176c0-9.251,3.21-18.027,14.202-18.027c6.366,0,10.338,3.131,10.882,8.587L187.439,48.307
		L187.439,48.307z M172.476,62.87c0,4.176,2.938,7.496,7.999,7.496c5.006,0,7.781-3.464,7.781-7.447
		c0-4.176-2.503-7.638-7.781-7.638C175.305,55.28,172.476,58.648,172.476,62.87z"/>
	<path fill="#FFFFFF" d="M207.571,39.72c12.08,0,12.841,9.678,12.841,17.126c0,7.4-0.762,17.078-12.841,17.078
		c-12.08,0-12.842-9.678-12.842-17.078C194.729,49.397,195.491,39.72,207.571,39.72z M207.571,70.366
		c7.89,0,7.944-8.539,7.944-13.568c0-4.979-0.055-13.521-7.944-13.521c-7.89,0-7.944,8.54-7.944,13.521
		C199.626,61.827,199.681,70.366,207.571,70.366z"/>
	<path fill="#FFFFFF" d="M235.972,48.828h5.659v4.507h-5.659V65.48c0,2.276,0.653,2.847,3.265,2.847
		c0.816,0,1.578-0.048,2.394-0.189v5.267c-1.306,0.188-2.993,0.236-4.516,0.236c-4.734,0-8.87-0.948-8.87-5.835v-14.47h-4.679
		v-4.507h4.679v-7.353h7.727V48.828z"/>
	<path fill="#FFFFFF" d="M244.786,48.828h7.346v4.555h0.109c1.415-3.084,5.224-5.219,8.978-5.219c0.544,0,1.197,0.095,1.688,0.237
		v6.262c-0.707-0.143-1.85-0.237-2.775-0.237c-5.659,0-7.618,3.559-7.618,7.875v11.054h-7.727V48.828L244.786,48.828z"/>
	<path fill="#FFFFFF" d="M265.08,56.372c0.436-6.311,6.91-8.208,13.223-8.208c5.604,0,12.352,1.091,12.352,6.974V67.9
		c0,2.229,0.271,4.459,0.979,5.455h-7.836c-0.271-0.759-0.489-1.565-0.544-2.372c-2.447,2.229-6.04,3.036-9.468,3.036
		c-5.332,0-9.577-2.324-9.577-7.354c0-5.549,4.789-6.877,9.577-7.447c4.733-0.616,9.142-0.475,9.142-3.227
		c0-2.894-2.285-3.32-5.006-3.32c-2.938,0-4.843,1.044-5.115,3.701H265.08z M282.927,61.353c-1.307,0.996-4.026,1.043-6.421,1.423
		c-2.395,0.428-4.57,1.139-4.57,3.605c0,2.515,2.23,3.131,4.733,3.131c6.04,0,6.258-4.176,6.258-5.646V61.353z"/>
	<path fill="#FFFFFF" d="M301.861,45.033h-7.728v-5.551h7.728V45.033z M294.134,48.828h7.728v24.526h-7.728V48.828z"/>
	<path fill="#FFFFFF" d="M305.232,48.828h7.347v3.416h0.163c1.959-2.752,5.332-4.08,8.598-4.08c8.217,0,10.283,4.032,10.283,10.104
		v15.086h-7.727V59.502c0-4.033-1.36-6.024-4.951-6.024c-4.189,0-5.985,2.04-5.985,7.021v12.856h-7.728V48.828L305.232,48.828z"/>
	<path fill="#FFFFFF" d="M342.721,45.033h-7.727v-5.551h7.727V45.033z M334.995,48.828h7.728v24.526h-7.728V48.828z"/>
	<path fill="#FFFFFF" d="M346.094,48.828h7.346v3.416h0.164c1.959-2.752,5.332-4.08,8.598-4.08c8.216,0,10.283,4.032,10.283,10.104
		v15.086h-7.728V59.502c0-4.033-1.36-6.024-4.95-6.024c-4.189,0-5.986,2.04-5.986,7.021v12.856h-7.727V48.828L346.094,48.828z"/>
	<path fill="#FFFFFF" d="M402.681,71.79c0,4.031-1.633,10.862-14.583,10.862c-5.55,0-12.023-2.276-12.404-7.875h7.672
		c0.707,2.515,3.047,3.368,5.768,3.368c4.299,0,6.258-2.563,6.203-6.072v-3.226h-0.107c-1.688,2.562-5.062,3.795-8.436,3.795
		c-8.434,0-12.025-5.599-12.025-12.334c0-6.356,4.19-12.145,12.08-12.145c3.7,0,6.529,1.091,8.381,3.938h0.107v-3.273h7.346
		L402.681,71.79L402.681,71.79z M395.335,60.784c0-3.986-1.578-7.543-6.584-7.543c-4.353,0-6.258,3.32-6.258,6.973
		c0,3.512,1.522,7.354,6.258,7.354C393.159,67.566,395.335,64.293,395.335,60.784z"/>
</g>
<g>
	<path fill="#FFFFFF" d="M409.395,70.644c0-1.046,0.366-1.937,1.099-2.668c0.732-0.733,1.624-1.101,2.671-1.101
		s1.937,0.367,2.669,1.101c0.733,0.731,1.101,1.622,1.101,2.668c0,1.047-0.366,1.94-1.101,2.681c-0.732,0.74-1.622,1.11-2.669,1.11
		s-1.938-0.37-2.671-1.11S409.395,71.69,409.395,70.644z"/>
	<path fill="#FFFFFF" d="M440.626,52.741l-2.24,3.916c-1.229-1.159-2.875-1.738-4.94-1.738c-1.982,0-3.549,0.66-4.7,1.979
		c-1.152,1.319-1.729,3.146-1.729,5.478c0,4.703,2.24,7.056,6.724,7.056c1.938,0,3.648-0.644,5.129-1.927l1.927,4.125
		c-1.521,0.949-2.851,1.55-3.988,1.802c-1.139,0.251-2.48,0.377-4.03,0.377c-3.462,0-6.195-1.009-8.198-3.026
		c-2.003-2.017-3.004-4.818-3.004-8.406c0-3.531,1.095-6.389,3.287-8.564c2.19-2.177,5.18-3.266,8.962-3.266
		C436.432,50.543,438.701,51.275,440.626,52.741z"/>
	<path fill="#FFFFFF" d="M442.232,62.122c0-3.42,0.986-6.206,2.963-8.354c1.976-2.15,4.582-3.225,7.82-3.225
		c3.405,0,6.051,1.032,7.936,3.099s2.828,4.892,2.828,8.479c0,3.574-0.961,6.416-2.88,8.521c-1.921,2.109-4.549,3.163-7.884,3.163
		c-3.406,0-6.057-1.063-7.946-3.192C443.177,68.483,442.232,65.654,442.232,62.122z M447.675,62.122c0,4.941,1.78,7.412,5.341,7.412
		c1.634,0,2.928-0.642,3.885-1.926c0.955-1.283,1.434-3.113,1.434-5.486c0-4.871-1.772-7.308-5.317-7.308
		c-1.634,0-2.933,0.642-3.896,1.927C448.158,58.024,447.675,59.817,447.675,62.122z"/>
	<path fill="#FFFFFF" d="M492.645,73.388V59.336c0-2.944-1.318-4.417-3.957-4.417c-0.782,0-1.536,0.23-2.262,0.691
		c-0.727,0.46-1.234,0.99-1.528,1.59v16.188h-5.234V58.52c0-1.104-0.344-1.979-1.026-2.628c-0.685-0.649-1.646-0.973-2.889-0.973
		c-0.658,0-1.372,0.244-2.147,0.733c-0.773,0.488-1.336,1.024-1.686,1.611v16.124h-5.235V50.961h3.603l1.067,1.969
		c1.451-1.593,3.33-2.387,5.634-2.387c2.974,0,5.215,0.808,6.722,2.429c0.655-0.74,1.57-1.33,2.743-1.77s2.345-0.659,3.518-0.659
		c2.498,0,4.442,0.715,5.832,2.146c1.389,1.431,2.084,3.396,2.084,5.896v14.805L492.645,73.388L492.645,73.388z"/>
</g>
<g>
	<path fill="#FFFFFF" d="M505.871,38.98c3.097,0,5.563,2.518,5.563,5.666c0,3.197-2.468,5.69-5.59,5.69
		c-3.097,0-5.613-2.493-5.613-5.69c0-3.148,2.518-5.666,5.613-5.666H505.871z M505.845,39.862c-2.492,0-4.532,2.14-4.532,4.784
		c0,2.693,2.04,4.809,4.559,4.809c2.518,0.025,4.531-2.115,4.531-4.783c0-2.67-2.015-4.81-4.531-4.81H505.845z M504.788,47.943
		h-1.007v-6.319c0.527-0.074,1.033-0.15,1.787-0.15c0.958,0,1.587,0.201,1.965,0.479c0.377,0.276,0.578,0.705,0.578,1.31
		c0,0.83-0.555,1.333-1.233,1.535v0.051c0.555,0.102,0.932,0.604,1.059,1.536c0.15,0.981,0.303,1.358,0.402,1.56h-1.058
		c-0.15-0.201-0.304-0.779-0.43-1.611c-0.149-0.805-0.554-1.107-1.358-1.107h-0.705V47.943z M504.788,44.445h0.729
		c0.831,0,1.535-0.303,1.535-1.083c0-0.555-0.401-1.107-1.535-1.107c-0.326,0-0.554,0.024-0.729,0.05V44.445z"/>
</g>
<g>
	<path fill="#B3B3B3" d="M42.354,88.749c18.418,18.42,48.254,18.404,66.649-0.004c18.383-18.394,18.388-48.25,0.006-66.624
		C90.611,3.719,60.764,3.723,42.367,22.133C23.967,40.53,23.967,70.36,42.354,88.749z"/>
	<path fill="#EE3224" stroke="#FFFFFF" stroke-width="4.5592" d="M46.989,84.124c15.847,15.858,41.54,15.854,57.38-0.002
		c15.844-15.834,15.846-41.544,0.013-57.377c-15.85-15.846-41.546-15.838-57.389,0.012C31.149,42.598,31.149,68.288,46.989,84.124z"
		/>
	<path fill="#FFFFFF" d="M83.822,39.622c0,4.5-3.643,8.147-8.137,8.147c-4.505,0-8.145-3.647-8.145-8.147
		c0-4.49,3.64-8.135,8.145-8.135C80.179,31.487,83.822,35.132,83.822,39.622z"/>
	<path fill="#FFFFFF" d="M81.605,60.219c0,3.269-2.654,5.921-5.92,5.921c-3.281,0-5.929-2.652-5.929-5.921
		c0-3.276,2.647-5.928,5.929-5.928C78.951,54.291,81.605,56.942,81.605,60.219z"/>
	<path fill="#FFFFFF" d="M79.731,76.709c0,2.234-1.815,4.045-4.046,4.045c-2.243,0-4.051-1.811-4.051-4.045s1.808-4.053,4.051-4.053
		C77.916,72.657,79.731,74.475,79.731,76.709z"/>
	<path fill="#FFFFFF" d="M63.421,48.967c0,2.236-1.81,4.047-4.05,4.047c-2.233,0-4.048-1.811-4.048-4.047
		c0-2.231,1.814-4.049,4.048-4.049C61.612,44.918,63.421,46.735,63.421,48.967z"/>
	<path fill="#FFFFFF" d="M96.033,48.967c0,2.236-1.812,4.047-4.049,4.047c-2.232,0-4.043-1.811-4.043-4.047
		c0-2.231,1.811-4.049,4.043-4.049C94.221,44.918,96.033,46.735,96.033,48.967z"/>
</g>
</svg>
